<mxfile host="65bd71144e">
    <diagram name="Page-1" id="h3Ih8aylvkIDatr13672">
        <mxGraphModel dx="1374" dy="1595" grid="1" gridSize="10" guides="1" tooltips="1" connect="1" arrows="1" fold="1" page="1" pageScale="1" pageWidth="850" pageHeight="1100" math="0" shadow="0">
            <root>
                <mxCell id="0"/>
                <mxCell id="1" parent="0"/>
                <mxCell id="LrDILUt4F10vicsZ72wK-3" value="AI Service &lt;font style=&quot;font-size: 6px;&quot;&gt;(For MVP use Lamma, but construct Prompt Task Manger so that model can be replaced in the future)&lt;/font&gt;" style="ellipse;whiteSpace=wrap;html=1;" parent="1" vertex="1">
                    <mxGeometry x="555" y="620" width="170" height="110" as="geometry"/>
                </mxCell>
                <mxCell id="LrDILUt4F10vicsZ72wK-13" value="" style="edgeStyle=orthogonalEdgeStyle;rounded=0;orthogonalLoop=1;jettySize=auto;html=1;startArrow=classic;startFill=1;" parent="1" source="LrDILUt4F10vicsZ72wK-4" target="LrDILUt4F10vicsZ72wK-7" edge="1">
                    <mxGeometry relative="1" as="geometry"/>
                </mxCell>
                <mxCell id="LrDILUt4F10vicsZ72wK-4" value="" style="whiteSpace=wrap;html=1;aspect=fixed;" parent="1" vertex="1">
                    <mxGeometry x="560" y="280" width="160" height="160" as="geometry"/>
                </mxCell>
                <mxCell id="LrDILUt4F10vicsZ72wK-15" value="" style="edgeStyle=orthogonalEdgeStyle;rounded=0;orthogonalLoop=1;jettySize=auto;html=1;startArrow=classic;startFill=1;" parent="1" source="LrDILUt4F10vicsZ72wK-6" target="LrDILUt4F10vicsZ72wK-10" edge="1">
                    <mxGeometry relative="1" as="geometry"/>
                </mxCell>
                <mxCell id="LrDILUt4F10vicsZ72wK-6" value="Load Balancer (Nginx)&lt;div&gt;[Dima]&lt;/div&gt;" style="rounded=0;whiteSpace=wrap;html=1;" parent="1" vertex="1">
                    <mxGeometry x="170" y="225" width="120" height="270" as="geometry"/>
                </mxCell>
                <mxCell id="LrDILUt4F10vicsZ72wK-24" value="" style="edgeStyle=orthogonalEdgeStyle;rounded=0;orthogonalLoop=1;jettySize=auto;html=1;startArrow=classic;startFill=1;dashed=1;dashPattern=1 2;" parent="1" source="LrDILUt4F10vicsZ72wK-7" target="LrDILUt4F10vicsZ72wK-23" edge="1">
                    <mxGeometry relative="1" as="geometry"/>
                </mxCell>
                <mxCell id="LrDILUt4F10vicsZ72wK-7" value="SQL DataBase (PostgresQL)&lt;div&gt;[alembic]&lt;/div&gt;" style="ellipse;whiteSpace=wrap;html=1;" parent="1" vertex="1">
                    <mxGeometry x="580" y="140" width="120" height="80" as="geometry"/>
                </mxCell>
                <mxCell id="LrDILUt4F10vicsZ72wK-11" value="" style="edgeStyle=orthogonalEdgeStyle;rounded=0;orthogonalLoop=1;jettySize=auto;html=1;startArrow=classic;startFill=1;" parent="1" source="LrDILUt4F10vicsZ72wK-10" target="LrDILUt4F10vicsZ72wK-4" edge="1">
                    <mxGeometry relative="1" as="geometry"/>
                </mxCell>
                <mxCell id="LrDILUt4F10vicsZ72wK-26" style="edgeStyle=orthogonalEdgeStyle;rounded=0;orthogonalLoop=1;jettySize=auto;html=1;exitX=0.5;exitY=0;exitDx=0;exitDy=0;entryX=0;entryY=0.5;entryDx=0;entryDy=0;startArrow=classic;startFill=1;" parent="1" source="LrDILUt4F10vicsZ72wK-10" target="LrDILUt4F10vicsZ72wK-7" edge="1">
                    <mxGeometry relative="1" as="geometry"/>
                </mxCell>
                <mxCell id="LrDILUt4F10vicsZ72wK-10" value="Auth Service&amp;nbsp;&lt;div&gt;(Try open source)&lt;/div&gt;" style="rounded=0;whiteSpace=wrap;html=1;" parent="1" vertex="1">
                    <mxGeometry x="365" y="330" width="120" height="60" as="geometry"/>
                </mxCell>
                <mxCell id="LrDILUt4F10vicsZ72wK-17" style="edgeStyle=orthogonalEdgeStyle;rounded=0;orthogonalLoop=1;jettySize=auto;html=1;exitX=1;exitY=0.5;exitDx=0;exitDy=0;startArrow=classic;startFill=1;" parent="1" source="LrDILUt4F10vicsZ72wK-16" target="LrDILUt4F10vicsZ72wK-6" edge="1">
                    <mxGeometry relative="1" as="geometry"/>
                </mxCell>
                <mxCell id="LrDILUt4F10vicsZ72wK-16" value="WEB cleint&amp;nbsp;&lt;div&gt;[Boris The Resolver]&lt;/div&gt;" style="rounded=0;whiteSpace=wrap;html=1;" parent="1" vertex="1">
                    <mxGeometry x="-100" y="330" width="120" height="60" as="geometry"/>
                </mxCell>
                <mxCell id="LrDILUt4F10vicsZ72wK-21" value="" style="edgeStyle=orthogonalEdgeStyle;rounded=0;orthogonalLoop=1;jettySize=auto;html=1;startArrow=classic;startFill=1;" parent="1" source="LrDILUt4F10vicsZ72wK-19" target="LrDILUt4F10vicsZ72wK-4" edge="1">
                    <mxGeometry relative="1" as="geometry"/>
                </mxCell>
                <mxCell id="LrDILUt4F10vicsZ72wK-22" value="" style="edgeStyle=orthogonalEdgeStyle;rounded=0;orthogonalLoop=1;jettySize=auto;html=1;startArrow=classic;startFill=1;" parent="1" source="LrDILUt4F10vicsZ72wK-19" target="LrDILUt4F10vicsZ72wK-3" edge="1">
                    <mxGeometry relative="1" as="geometry"/>
                </mxCell>
                <mxCell id="LrDILUt4F10vicsZ72wK-19" value="AI Manager (Own service)" style="rounded=0;whiteSpace=wrap;html=1;" parent="1" vertex="1">
                    <mxGeometry x="580" y="495" width="120" height="60" as="geometry"/>
                </mxCell>
                <mxCell id="LrDILUt4F10vicsZ72wK-23" value="" style="rounded=0;whiteSpace=wrap;html=1;fillColor=#eeeeee;strokeColor=#36393d;" parent="1" vertex="1">
                    <mxGeometry x="230" y="-360" width="1160" height="460" as="geometry"/>
                </mxCell>
                <mxCell id="LrDILUt4F10vicsZ72wK-35" value="" style="edgeStyle=orthogonalEdgeStyle;rounded=0;orthogonalLoop=1;jettySize=auto;html=1;" parent="1" source="LrDILUt4F10vicsZ72wK-25" target="LrDILUt4F10vicsZ72wK-32" edge="1">
                    <mxGeometry relative="1" as="geometry"/>
                </mxCell>
                <mxCell id="LrDILUt4F10vicsZ72wK-25" value="&lt;h1&gt;User&lt;/h1&gt;&lt;div&gt;&lt;br&gt;&lt;/div&gt;&lt;div&gt;id: int&lt;/div&gt;&lt;div&gt;username: str&lt;/div&gt;&lt;div&gt;first_name: str&lt;/div&gt;&lt;div&gt;last_name: str&lt;/div&gt;&lt;div&gt;email: str&lt;/div&gt;&lt;div&gt;password: str&lt;/div&gt;&lt;div&gt;&lt;br&gt;&lt;/div&gt;&lt;div&gt;[maybe other fields required by open source auth lib]&lt;/div&gt;" style="rounded=0;whiteSpace=wrap;html=1;" parent="1" vertex="1">
                    <mxGeometry x="260" y="-325" width="120" height="230" as="geometry"/>
                </mxCell>
                <mxCell id="LrDILUt4F10vicsZ72wK-27" value="DB Schemas" style="text;html=1;align=center;verticalAlign=middle;whiteSpace=wrap;rounded=0;" parent="1" vertex="1">
                    <mxGeometry x="645" y="-350" width="95" height="30" as="geometry"/>
                </mxCell>
                <mxCell id="LrDILUt4F10vicsZ72wK-37" style="edgeStyle=orthogonalEdgeStyle;rounded=0;orthogonalLoop=1;jettySize=auto;html=1;exitX=1;exitY=0.25;exitDx=0;exitDy=0;entryX=0;entryY=0.5;entryDx=0;entryDy=0;" parent="1" source="LrDILUt4F10vicsZ72wK-28" target="LrDILUt4F10vicsZ72wK-36" edge="1">
                    <mxGeometry relative="1" as="geometry"/>
                </mxCell>
                <mxCell id="LrDILUt4F10vicsZ72wK-38" value="One-to-many" style="edgeLabel;html=1;align=center;verticalAlign=middle;resizable=0;points=[];" parent="LrDILUt4F10vicsZ72wK-37" vertex="1" connectable="0">
                    <mxGeometry x="0.2185" y="1" relative="1" as="geometry">
                        <mxPoint as="offset"/>
                    </mxGeometry>
                </mxCell>
                <mxCell id="LrDILUt4F10vicsZ72wK-41" value="one-to-one" style="edgeStyle=orthogonalEdgeStyle;rounded=0;orthogonalLoop=1;jettySize=auto;html=1;" parent="1" source="LrDILUt4F10vicsZ72wK-28" target="LrDILUt4F10vicsZ72wK-40" edge="1">
                    <mxGeometry relative="1" as="geometry"/>
                </mxCell>
                <mxCell id="OmslUc-zT03USrgJnTiK-6" style="edgeStyle=orthogonalEdgeStyle;rounded=0;orthogonalLoop=1;jettySize=auto;html=1;exitX=1;exitY=0.5;exitDx=0;exitDy=0;entryX=0;entryY=0.5;entryDx=0;entryDy=0;" parent="1" source="LrDILUt4F10vicsZ72wK-28" target="OmslUc-zT03USrgJnTiK-5" edge="1">
                    <mxGeometry relative="1" as="geometry"/>
                </mxCell>
                <mxCell id="OmslUc-zT03USrgJnTiK-7" value="One-to-many" style="edgeLabel;html=1;align=center;verticalAlign=middle;resizable=0;points=[];" parent="OmslUc-zT03USrgJnTiK-6" connectable="0" vertex="1">
                    <mxGeometry x="-0.1978" relative="1" as="geometry">
                        <mxPoint as="offset"/>
                    </mxGeometry>
                </mxCell>
                <mxCell id="LrDILUt4F10vicsZ72wK-28" value="&lt;h1&gt;Project&lt;/h1&gt;&lt;div&gt;id: int&lt;/div&gt;&lt;div&gt;title: str&lt;/div&gt;&lt;div&gt;sub_title: str [nullable=True]&lt;/div&gt;&lt;div&gt;abstract: str&amp;nbsp;&lt;span style=&quot;background-color: transparent; color: light-dark(rgb(0, 0, 0), rgb(255, 255, 255));&quot;&gt;[nullable=True]&lt;/span&gt;&lt;/div&gt;&lt;div&gt;&lt;span style=&quot;background-color: transparent; color: light-dark(rgb(0, 0, 0), rgb(255, 255, 255));&quot;&gt;keywords: list[str]&lt;/span&gt;&lt;/div&gt;&lt;div&gt;study_organization: str&amp;nbsp;&lt;span style=&quot;background-color: transparent; color: light-dark(rgb(0, 0, 0), rgb(255, 255, 255));&quot;&gt;[nullable=True]&lt;/span&gt;&lt;/div&gt;" style="rounded=0;whiteSpace=wrap;html=1;" parent="1" vertex="1">
                    <mxGeometry x="632.5" y="-320" width="177.5" height="220" as="geometry"/>
                </mxCell>
                <mxCell id="LrDILUt4F10vicsZ72wK-34" value="" style="edgeStyle=orthogonalEdgeStyle;rounded=0;orthogonalLoop=1;jettySize=auto;html=1;" parent="1" source="LrDILUt4F10vicsZ72wK-32" target="LrDILUt4F10vicsZ72wK-28" edge="1">
                    <mxGeometry relative="1" as="geometry"/>
                </mxCell>
                <mxCell id="LrDILUt4F10vicsZ72wK-32" value="&lt;h1&gt;UserToProject&lt;/h1&gt;&lt;div&gt;[Many to Many]&lt;/div&gt;&lt;div&gt;&lt;br&gt;&lt;/div&gt;&lt;div&gt;id: int&lt;/div&gt;&lt;div&gt;user_id: [FK]&lt;/div&gt;&lt;div&gt;project_id: [FK]&lt;/div&gt;&lt;div&gt;role: str # Role in project not&amp;nbsp;&lt;span style=&quot;background-color: transparent; color: light-dark(rgb(0, 0, 0), rgb(255, 255, 255));&quot;&gt;permissions&lt;/span&gt;&lt;/div&gt;&lt;div&gt;permissions: str&lt;/div&gt;&lt;div&gt;last_modified: datetime [timezone=True, nullable=True]&lt;/div&gt;&lt;div&gt;last_viewed: datetime [timezone=True]&lt;/div&gt;" style="rounded=0;whiteSpace=wrap;html=1;" parent="1" vertex="1">
                    <mxGeometry x="420" y="-330" width="180" height="240" as="geometry"/>
                </mxCell>
                <mxCell id="LrDILUt4F10vicsZ72wK-36" value="&lt;h1&gt;Project Goal&lt;/h1&gt;&lt;div&gt;id: int&lt;/div&gt;&lt;div&gt;content: str&lt;/div&gt;&lt;div&gt;project_id: int [FK]&lt;/div&gt;&lt;div&gt;is_reached: bool [default = False]&lt;/div&gt;" style="rounded=0;whiteSpace=wrap;html=1;" parent="1" vertex="1">
                    <mxGeometry x="900" y="-330" width="190" height="130" as="geometry"/>
                </mxCell>
                <mxCell id="OmslUc-zT03USrgJnTiK-11" value="" style="edgeStyle=orthogonalEdgeStyle;rounded=0;orthogonalLoop=1;jettySize=auto;html=1;" parent="1" source="LrDILUt4F10vicsZ72wK-40" target="OmslUc-zT03USrgJnTiK-8" edge="1">
                    <mxGeometry relative="1" as="geometry"/>
                </mxCell>
                <mxCell id="LrDILUt4F10vicsZ72wK-40" value="&lt;h1&gt;Document&lt;/h1&gt;&lt;div&gt;&lt;br&gt;&lt;/div&gt;&lt;div&gt;id: int&lt;/div&gt;&lt;div&gt;project_id: int&lt;/div&gt;&lt;div&gt;content: [Use Document sotore]&lt;/div&gt;&lt;div&gt;last_modified: datetime [timezone=True]&lt;/div&gt;" style="whiteSpace=wrap;html=1;rounded=0;" parent="1" vertex="1">
                    <mxGeometry x="617.5" y="-70" width="207.5" height="160" as="geometry"/>
                </mxCell>
                <mxCell id="OmslUc-zT03USrgJnTiK-1" value="Instance 1" style="rounded=0;whiteSpace=wrap;html=1;" parent="1" vertex="1">
                    <mxGeometry x="595" y="310" width="90" height="30" as="geometry"/>
                </mxCell>
                <mxCell id="OmslUc-zT03USrgJnTiK-2" value="Backend (supports WS)&amp;nbsp;" style="text;html=1;align=center;verticalAlign=middle;whiteSpace=wrap;rounded=0;" parent="1" vertex="1">
                    <mxGeometry x="595" y="280" width="90" height="30" as="geometry"/>
                </mxCell>
                <mxCell id="OmslUc-zT03USrgJnTiK-3" value="Instance n-1" style="rounded=0;whiteSpace=wrap;html=1;" parent="1" vertex="1">
                    <mxGeometry x="595" y="350" width="90" height="30" as="geometry"/>
                </mxCell>
                <mxCell id="OmslUc-zT03USrgJnTiK-4" value="Instance n" style="rounded=0;whiteSpace=wrap;html=1;" parent="1" vertex="1">
                    <mxGeometry x="595" y="390" width="90" height="30" as="geometry"/>
                </mxCell>
                <mxCell id="OmslUc-zT03USrgJnTiK-5" value="&lt;h1&gt;Source Link&lt;/h1&gt;&lt;div&gt;id: int&lt;/div&gt;&lt;div&gt;title: str&lt;/div&gt;&lt;div&gt;href: str&lt;/div&gt;&lt;div&gt;project_id: int&lt;/div&gt;" style="rounded=0;whiteSpace=wrap;html=1;" parent="1" vertex="1">
                    <mxGeometry x="900" y="-190" width="190" height="130" as="geometry"/>
                </mxCell>
                <mxCell id="OmslUc-zT03USrgJnTiK-10" value="" style="edgeStyle=orthogonalEdgeStyle;rounded=0;orthogonalLoop=1;jettySize=auto;html=1;" parent="1" source="OmslUc-zT03USrgJnTiK-8" target="OmslUc-zT03USrgJnTiK-9" edge="1">
                    <mxGeometry relative="1" as="geometry"/>
                </mxCell>
                <mxCell id="OmslUc-zT03USrgJnTiK-8" value="&lt;h1&gt;Project Chapter&lt;/h1&gt;&lt;div&gt;id: int&lt;/div&gt;&lt;div&gt;title: str&lt;/div&gt;&lt;div&gt;project_id: int&lt;/div&gt;" style="rounded=0;whiteSpace=wrap;html=1;" parent="1" vertex="1">
                    <mxGeometry x="900" y="-50" width="190" height="130" as="geometry"/>
                </mxCell>
                <mxCell id="OmslUc-zT03USrgJnTiK-9" value="&lt;h1&gt;Project Section&lt;/h1&gt;&lt;div&gt;id: int&lt;/div&gt;&lt;div&gt;title: str&lt;/div&gt;&lt;div&gt;content: str&lt;/div&gt;&lt;div&gt;chapter_id: int&lt;/div&gt;" style="rounded=0;whiteSpace=wrap;html=1;" parent="1" vertex="1">
                    <mxGeometry x="1140" y="-50" width="190" height="130" as="geometry"/>
                </mxCell>
            </root>
        </mxGraphModel>
    </diagram>
</mxfile>
